<!DOCTYPE svg PUBLIC "-//W3C//DTD SVG 1.1//EN" "http://www.w3.org/Graphics/SVG/1.1/DTD/svg11.dtd">
<!-- Uploaded to: SVG Repo, www.svgrepo.com, Transformed by: SVG Repo Mixer Tools -->
<svg fill="#000000" width="199px" height="199px" viewBox="-0.96 -0.96 33.92 33.92" version="1.1" xmlns="http://www.w3.org/2000/svg" transform="rotate(90)matrix(1, 0, 0, 1, 0, 0)">
<g id="SVGRepo_bgCarrier" stroke-width="0"/>
<g id="SVGRepo_tracerCarrier" stroke-linecap="round" stroke-linejoin="round" stroke="#c29d19" stroke-width="1.408"> <title>zoomout</title> <path d="M7.993 11.013h5.016v1.003h-5.016zM29.156 27.123l-5.676-5.674c-0.656-0.658-1.643-0.73-2.41-0.283l-3.035-3.035c1.6-1.777 2.58-4.121 2.58-6.7 0-5.541-4.49-10.032-10.031-10.032s-10.031 4.491-10.031 10.032c0 5.54 4.491 10.031 10.031 10.031 2.237 0 4.296-0.741 5.965-1.979l3.104 3.102c-0.447 0.769-0.375 1.754 0.281 2.412l5.676 5.674c0.783 0.784 2.053 0.784 2.838 0l0.709-0.709c0.782-0.784 0.782-2.055-0.001-2.839zM10.563 18.912c-4.155 0-7.523-3.368-7.523-7.523s3.368-7.523 7.523-7.523 7.524 3.368 7.524 7.523-3.368 7.523-7.524 7.523z"/> </g>
<g id="SVGRepo_iconCarrier"> <title>zoomout</title> <path d="M7.993 11.013h5.016v1.003h-5.016zM29.156 27.123l-5.676-5.674c-0.656-0.658-1.643-0.73-2.41-0.283l-3.035-3.035c1.6-1.777 2.58-4.121 2.58-6.7 0-5.541-4.49-10.032-10.031-10.032s-10.031 4.491-10.031 10.032c0 5.54 4.491 10.031 10.031 10.031 2.237 0 4.296-0.741 5.965-1.979l3.104 3.102c-0.447 0.769-0.375 1.754 0.281 2.412l5.676 5.674c0.783 0.784 2.053 0.784 2.838 0l0.709-0.709c0.782-0.784 0.782-2.055-0.001-2.839zM10.563 18.912c-4.155 0-7.523-3.368-7.523-7.523s3.368-7.523 7.523-7.523 7.524 3.368 7.524 7.523-3.368 7.523-7.524 7.523z"/> </g>
</svg>